{"glyphs":{":":{"x_min":0,"x_max":254,"ha":254,"o":"m 82 372 l 129 428 q 138 438 144 438 q 150 438 158 428 l 205 372 q 216 358 205 345 l 158 288 q 150 278 144 278 q 138 278 129 288 l 82 345 q 72 358 82 372 z m 82 80 l 129 137 q 138 147 144 147 q 150 147 158 137 l 205 80 q 216 67 205 53 l 158 -3 q 150 -14 144 -14 q 138 -14 129 -3 l 82 53 q 72 67 82 80 z"},"$":{"x_min":0,"x_max":463,"ha":463,"o":"m 202 579 l 202 668 l 255 668 l 255 580 q 321 574 360 540 q 400 507 400 458 q 400 400 343 400 q 318 400 303 415 q 288 429 288 452 q 288 466 295 476 q 301 486 318 497 q 322 500 322 504 q 322 513 304 523 q 285 532 255 536 l 255 342 l 268 339 q 340 318 383 279 q 425 241 425 168 q 425 92 380 45 q 335 -2 255 -8 l 255 -108 l 202 -108 l 202 -9 q 164 -7 136 2 q 90 18 64 50 q 38 82 38 123 q 38 155 55 175 q 72 195 102 195 q 126 195 140 180 q 155 165 155 143 q 155 108 120 87 q 113 83 113 78 q 113 65 138 52 q 162 39 202 36 l 202 253 q 160 266 118 292 q 85 312 67 347 q 48 382 48 422 q 48 486 89 527 q 129 568 202 579 z m 202 358 l 202 534 q 165 530 140 505 q 115 480 115 449 q 115 388 202 358 z m 255 240 l 255 37 q 278 39 294 46 q 322 58 340 81 q 357 105 357 139 q 357 202 283 232 q 270 237 255 240 z"},"?":{"x_min":0,"x_max":416,"ha":416,"o":"m 268 458 q 268 498 246 519 q 224 540 187 540 q 152 540 146 528 q 139 516 148 488 q 156 461 154 447 q 152 431 133 420 q 113 410 88 410 q 58 410 44 427 q 29 443 29 471 q 29 521 80 554 q 131 587 208 587 q 288 587 336 549 q 384 512 384 450 q 384 410 363 382 q 342 353 284 310 q 255 288 236 266 q 217 244 210 216 q 208 208 201 198 q 192 186 188 186 q 185 187 175 198 q 166 208 168 227 q 169 252 179 275 q 189 299 200 315 q 210 330 233 361 q 238 368 241 371 q 268 408 268 458 z m 132 80 l 174 139 q 182 149 188 149 q 193 149 201 139 l 242 80 q 252 67 242 53 l 201 -6 q 192 -17 188 -17 q 182 -17 174 -6 l 132 53 q 122 67 132 80 z"},"<":{"x_min":0,"x_max":505,"ha":505,"o":"m 465 365 l 133 211 l 465 57 l 465 -14 l 41 179 l 41 242 l 465 436 z"},"'":{"x_min":0,"x_max":199,"ha":199,"o":"m 51 315 l 63 520 q 63 527 67 538 q 72 561 90 574 q 108 587 134 587 q 162 587 172 574 q 183 562 178 538 q 174 526 172 520 l 73 315 z"},"=":{"x_min":0,"x_max":505,"ha":505,"o":"m 42 93 l 42 160 l 462 160 l 462 93 z m 42 262 l 42 328 l 462 328 l 462 262 z"},"a":{"x_min":0,"x_max":463,"ha":463,"o":"m 377 268 l 377 101 q 377 69 384 56 q 391 43 408 43 q 416 43 432 49 q 439 52 444 52 q 452 52 452 42 q 452 24 428 9 q 404 -6 376 -6 q 347 -6 330 8 q 312 22 302 53 q 247 -12 158 -12 q 102 -12 70 14 q 37 41 37 85 q 37 163 143 203 q 194 223 298 241 l 298 273 q 298 326 277 344 q 254 365 208 365 q 178 365 156 355 q 134 346 134 332 q 134 328 140 322 q 152 304 152 288 q 152 269 140 257 q 127 245 108 245 q 86 245 72 259 q 59 273 59 297 q 59 342 105 371 q 152 401 222 401 q 301 401 343 368 q 377 340 377 268 z m 298 167 l 298 205 q 211 191 175 174 q 121 148 121 97 q 121 68 140 50 q 158 32 187 32 q 213 32 240 46 q 266 60 282 83 q 292 100 295 115 q 298 129 298 167 z"},"L":{"x_min":0,"x_max":556,"ha":556,"o":"m 538 228 l 521 0 l 29 0 l 29 39 l 44 39 q 95 39 107 45 q 119 52 119 78 l 119 102 l 119 499 l 119 523 q 119 550 107 556 q 95 562 44 562 l 29 562 l 29 602 l 302 602 l 302 562 l 288 562 q 237 562 225 556 q 212 550 212 523 l 212 499 l 212 79 q 212 58 219 52 q 232 39 272 39 l 308 39 q 413 39 452 88 q 488 133 502 228 z"},"3":{"x_min":0,"x_max":475,"ha":475,"o":"m 302 307 q 367 295 401 255 q 435 216 435 157 q 435 80 378 34 q 320 -12 225 -12 q 141 -12 88 25 q 35 63 35 124 q 35 156 54 177 q 73 198 100 198 q 128 198 145 184 q 162 170 162 145 q 162 116 129 96 q 117 89 114 86 q 111 83 111 78 q 111 60 144 46 q 178 32 212 32 q 266 32 296 66 q 327 101 327 158 q 327 216 302 248 q 278 281 233 281 q 226 281 194 280 q 183 279 174 279 q 148 279 148 304 q 148 331 175 331 q 187 331 193 330 q 218 328 227 328 q 271 328 293 358 q 316 388 316 442 q 316 488 293 515 q 270 542 227 542 q 194 542 167 530 q 139 517 139 502 q 139 495 150 488 q 176 469 176 445 q 176 422 161 409 q 146 395 118 395 q 90 395 74 411 q 58 427 58 453 q 58 510 110 548 q 162 587 239 587 q 321 587 370 548 q 418 508 418 443 q 418 399 393 365 q 368 332 322 313 q 319 312 317 312 q 315 311 311 310 q 307 308 302 307 z"},";":{"x_min":0,"x_max":254,"ha":254,"o":"m 82 80 l 129 137 q 138 147 144 147 q 150 147 158 137 l 205 80 q 214 69 205 53 l 120 -93 q 112 -104 100 -100 q 89 -97 93 -81 l 112 -3 q 116 13 108 23 l 82 53 q 72 67 82 80 z m 82 372 l 129 428 q 138 438 144 438 q 150 438 158 428 l 205 372 q 216 358 205 345 l 158 288 q 150 278 144 278 q 138 278 129 288 l 82 345 q 72 358 82 372 z"},"J":{"x_min":0,"x_max":463,"ha":463,"o":"m 357 499 l 357 223 q 357 106 326 58 q 282 -12 170 -12 q 93 -12 52 23 q 4 63 4 129 q 4 173 28 202 q 51 231 88 231 q 115 231 132 214 q 150 198 150 171 q 150 145 135 128 q 120 111 98 111 q 84 111 67 115 l 64 115 q 54 115 54 102 q 54 83 70 63 q 98 27 155 27 q 229 27 253 99 q 264 132 264 231 l 264 499 l 264 523 q 264 550 252 556 q 240 562 190 562 l 174 562 l 174 602 l 448 602 l 448 562 l 432 562 q 381 562 369 556 q 357 550 357 523 z"},"V":{"x_min":0,"x_max":602,"ha":602,"o":"m 328 129 l 457 472 q 467 500 467 519 q 467 539 449 551 q 431 562 399 562 l 383 562 l 383 602 l 609 602 l 609 562 l 601 562 q 565 562 547 546 q 529 530 510 481 l 318 -12 l 285 -12 l 74 516 q 62 545 50 554 q 38 562 10 562 l -7 562 l -7 602 l 253 602 l 253 562 l 220 562 q 168 562 168 542 q 168 532 175 517 z"},"\"":{"x_min":0,"x_max":356,"ha":356,"o":"m 51 315 l 62 520 q 63 527 66 538 q 72 561 90 574 q 108 587 134 587 q 161 587 172 574 q 183 562 177 538 q 174 526 171 520 l 73 315 z m 208 315 l 221 520 q 221 527 224 538 q 230 561 248 574 q 267 587 293 587 q 319 587 331 574 q 342 561 337 538 q 335 533 329 520 l 231 315 z"},"7":{"x_min":0,"x_max":475,"ha":475,"o":"m 429 539 l 392 461 q 326 315 307 246 q 288 177 292 88 q 292 34 278 11 q 262 -12 228 -12 q 168 -12 168 50 q 168 108 207 200 q 229 253 301 389 l 349 487 q 327 486 298 486 q 257 486 160 491 q 153 492 142 492 q 123 492 116 480 q 108 469 99 428 l 88 379 l 47 385 l 72 587 q 202 578 299 578 q 368 578 429 583 z"},"S":{"x_min":0,"x_max":525,"ha":525,"o":"m 455 607 l 465 390 l 429 390 q 412 454 379 502 q 328 574 240 574 q 187 574 154 547 q 122 520 122 476 q 122 402 231 373 l 320 351 q 411 328 442 298 q 492 250 492 171 q 492 87 437 37 q 382 -12 291 -12 q 237 -12 197 2 q 158 16 116 50 l 78 -7 l 46 -7 l 42 231 l 78 231 q 96 142 143 88 q 200 26 288 26 q 351 26 389 59 q 427 92 427 142 q 427 192 388 222 q 376 232 363 236 q 351 240 303 252 l 224 272 q 132 296 95 334 q 57 372 57 440 q 57 518 107 566 q 158 614 239 614 q 331 614 391 557 l 424 607 z"},"}":{"x_min":0,"x_max":278,"ha":278,"o":"m 222 269 l 222 242 q 196 234 185 227 q 173 219 167 205 q 158 188 158 132 l 158 35 q 158 -43 129 -68 q 104 -90 51 -90 l 30 -90 l 30 -62 q 70 -59 83 -38 q 97 -17 97 43 l 97 152 q 97 194 108 215 q 118 235 152 256 q 118 277 108 297 q 97 318 97 360 l 97 468 q 97 528 83 550 q 70 571 30 573 l 30 602 l 51 602 q 104 602 129 579 q 158 555 158 477 l 158 380 q 158 339 160 325 q 162 312 171 300 q 182 282 222 269 z"},"Z":{"x_min":0,"x_max":509,"ha":509,"o":"m 474 602 l 474 572 l 132 39 l 270 39 q 358 39 390 82 q 424 124 440 232 l 479 232 l 464 0 l 20 0 l 20 30 l 361 562 l 252 562 q 168 562 135 529 q 102 495 82 391 l 44 391 l 61 602 z"},"x":{"x_min":0,"x_max":448,"ha":448,"o":"m 258 212 l 362 71 q 392 30 435 30 l 441 30 l 441 0 l 231 0 l 231 30 l 237 30 q 281 30 281 45 q 281 54 270 70 l 207 154 l 137 70 q 130 63 130 52 q 130 39 142 33 q 149 30 171 30 l 183 30 l 183 0 l 8 0 l 8 30 l 12 30 q 51 30 88 73 l 183 185 l 82 313 q 61 340 48 348 q 36 357 12 358 l 12 388 l 210 388 l 210 358 l 198 358 q 162 358 162 343 q 162 335 170 325 l 234 243 l 287 306 q 303 327 303 340 q 303 358 266 358 l 250 358 l 250 388 l 422 388 l 422 358 l 415 358 q 382 358 352 323 z"},")":{"x_min":0,"x_max":290,"ha":290,"o":"m 58 -102 l 45 -72 q 108 -17 135 59 q 162 135 162 256 q 162 376 135 452 q 108 528 45 582 l 58 613 q 131 569 174 513 q 260 401 260 256 q 260 98 162 -16 q 125 -61 58 -102 z"},"&":{"x_min":0,"x_max":679,"ha":679,"o":"m 609 141 l 646 136 q 640 88 618 54 q 576 -9 500 -9 q 466 -9 439 3 q 412 16 382 47 q 305 -12 222 -12 q 137 -12 90 38 q 42 90 42 158 q 42 213 80 261 q 117 308 187 342 q 152 417 152 467 q 152 533 192 574 q 232 614 298 614 q 356 614 392 583 q 428 552 428 502 q 428 468 410 437 q 393 405 364 385 q 338 367 283 342 q 357 208 418 136 q 476 203 476 262 q 476 301 401 301 l 392 301 l 392 337 l 628 337 l 628 301 l 618 301 q 578 301 553 278 q 542 267 536 255 q 529 244 498 188 q 478 150 443 108 q 491 57 535 57 q 562 57 582 79 q 602 102 609 141 z m 266 378 q 287 388 290 390 q 361 428 361 500 q 361 534 342 556 q 324 578 295 578 q 267 578 248 555 q 230 532 230 496 q 230 452 266 378 z m 202 308 q 165 287 148 262 q 132 237 132 202 q 132 140 174 92 q 217 44 272 44 q 308 44 356 75 q 303 137 274 182 q 244 227 202 308 z"},"_":{"x_min":0,"x_max":417,"ha":417,"o":"m 0 -61 l 417 -61 l 417 -112 l 0 -112 z"},"v":{"x_min":0,"x_max":448,"ha":448,"o":"m 246 101 l 322 294 q 330 317 330 329 q 330 358 285 358 l 273 358 l 273 388 l 440 388 l 440 358 l 437 358 q 391 358 359 280 l 241 -12 l 212 -12 l 68 322 q 60 343 49 351 q 38 358 13 358 l 7 358 l 7 388 l 203 388 l 203 358 l 192 358 q 166 358 156 354 q 147 350 147 339 q 147 330 151 322 z"},"O":{"x_min":0,"x_max":648,"ha":648,"o":"m 328 614 q 448 614 529 524 q 611 433 611 301 q 611 167 529 77 q 447 -12 324 -12 q 202 -12 120 77 q 38 167 38 300 q 38 371 64 435 q 91 500 139 544 q 215 614 328 614 z m 327 575 q 235 575 189 503 q 166 466 157 422 q 148 378 148 302 q 148 225 157 181 q 166 137 189 98 q 235 27 324 27 q 413 27 459 98 q 482 136 492 180 q 501 225 501 301 q 501 377 492 422 q 482 467 459 503 q 412 575 327 575 z"},"(":{"x_min":0,"x_max":290,"ha":290,"o":"m 232 613 l 245 580 q 182 525 155 449 q 128 373 128 253 q 128 133 155 57 q 182 -19 245 -74 l 232 -102 q 159 -58 116 -2 q 30 112 30 256 q 30 412 128 528 q 165 572 232 613 z"},"C":{"x_min":0,"x_max":602,"ha":602,"o":"m 532 608 l 545 367 l 508 367 q 482 453 461 491 q 437 531 400 553 q 362 575 319 575 q 279 575 243 555 q 208 534 188 499 q 148 428 148 292 q 148 158 192 92 q 237 27 329 27 q 432 27 484 113 q 506 149 518 212 l 557 206 q 542 101 481 44 q 419 -12 319 -12 q 196 -12 117 74 q 38 161 38 295 q 38 421 116 514 q 200 614 320 614 q 362 614 392 602 q 423 591 468 558 l 501 608 z"},"W":{"x_min":0,"x_max":818,"ha":818,"o":"m 291 152 l 388 472 l 366 537 q 361 552 350 557 q 339 562 313 562 l 294 562 l 294 602 l 535 602 l 535 562 l 522 562 q 486 562 474 558 q 462 552 462 540 q 462 535 468 517 l 582 152 l 682 490 q 688 503 688 519 q 688 562 616 562 l 609 562 l 609 602 l 813 602 l 813 562 l 810 562 q 768 562 748 532 q 737 516 726 477 l 579 -12 l 545 -12 l 410 402 l 287 -12 l 251 -12 l 71 530 q 63 552 55 557 q 47 562 21 562 l 5 562 l 5 602 l 240 602 l 240 562 l 202 562 q 167 562 167 546 q 167 538 171 525 z"},"A":{"x_min":0,"x_max":602,"ha":602,"o":"m 315 613 l 528 92 q 542 58 554 48 q 566 39 598 39 l 609 39 l 609 0 l 351 0 l 351 39 l 386 39 q 438 39 438 61 q 438 67 431 83 l 386 195 l 165 195 l 138 122 q 130 102 130 87 q 130 39 198 39 l 214 39 l 214 0 l -7 0 l -7 39 l -3 39 q 34 39 56 65 q 70 80 88 128 l 280 613 z m 274 477 l 182 240 l 368 240 z"},"f":{"x_min":0,"x_max":278,"ha":278,"o":"m 168 388 l 259 388 l 259 352 l 168 352 l 168 102 l 168 69 q 168 44 179 37 q 190 30 231 30 l 246 30 l 246 0 l 23 0 l 23 30 l 27 30 q 67 30 78 37 q 89 44 89 69 l 89 102 l 89 352 l 16 352 l 16 388 l 89 388 l 89 414 q 89 465 97 496 q 104 527 122 552 q 167 614 252 614 q 302 614 332 593 q 361 572 361 536 q 361 513 348 499 q 335 485 314 485 q 295 485 282 498 q 268 511 268 529 q 268 543 276 556 q 281 564 281 567 q 281 581 252 581 q 228 581 207 565 q 187 549 177 522 q 168 498 168 436 z"},"Q":{"x_min":0,"x_max":648,"ha":648,"o":"m 586 -17 l 623 -17 q 624 -82 595 -120 q 567 -158 517 -158 q 465 -158 435 -116 q 406 -75 403 0 q 366 -12 329 -12 q 208 -12 122 78 q 38 169 38 300 q 38 371 66 436 q 94 501 146 547 q 221 614 323 614 q 444 614 528 525 q 612 436 612 308 q 612 145 480 36 q 502 -32 518 -61 q 534 -90 552 -90 q 568 -90 575 -73 q 582 -57 586 -17 z m 458 99 q 482 138 492 184 q 502 229 502 302 q 502 427 468 492 q 448 531 410 553 q 372 575 325 575 q 231 575 190 502 q 148 425 148 300 q 148 158 197 92 q 196 99 196 108 q 196 158 230 189 q 263 221 316 221 q 368 221 405 189 q 442 158 458 99 z m 400 45 l 400 53 q 400 115 377 148 q 354 182 312 182 q 278 182 256 159 q 234 136 234 99 q 234 65 257 46 q 280 27 322 27 q 364 27 400 45 z"},"w":{"x_min":0,"x_max":648,"ha":648,"o":"m 456 108 l 527 298 q 533 313 533 328 q 533 358 492 358 l 478 358 l 478 388 l 636 388 l 636 358 l 630 358 q 608 358 595 345 q 582 332 568 295 l 452 -12 l 426 -12 l 324 251 l 225 -12 l 196 -12 l 71 318 q 62 342 54 350 q 45 358 28 358 l 12 358 l 12 388 l 196 388 l 196 358 l 181 358 q 147 358 147 339 q 147 332 150 321 l 231 112 l 304 306 l 297 328 q 291 346 282 352 q 272 358 253 358 l 239 358 l 239 388 l 426 388 l 426 358 l 406 358 q 385 358 378 355 q 371 351 371 339 q 371 329 374 322 z"},"-":{"x_min":0,"x_max":354,"ha":354,"o":"m 315 280 l 299 218 q 296 206 283 206 l 48 206 q 32 206 35 222 l 51 284 q 53 297 66 297 l 302 297 q 319 297 315 280 z"},"E":{"x_min":0,"x_max":602,"ha":602,"o":"m 525 602 l 537 388 l 501 388 q 482 499 441 532 q 420 549 390 556 q 359 562 303 562 l 260 562 q 226 562 217 555 q 208 548 208 521 l 208 331 l 228 331 q 287 331 314 358 q 341 384 344 445 l 383 445 l 383 172 l 344 172 q 342 240 312 269 q 300 282 281 287 q 262 292 224 292 l 208 292 l 208 79 q 208 58 214 52 q 227 39 268 39 l 322 39 q 428 39 466 88 q 498 128 516 222 l 552 222 l 536 0 l 24 0 l 24 39 l 39 39 q 90 39 102 45 q 114 52 114 78 l 114 102 l 114 499 l 114 523 q 114 550 102 556 q 90 562 39 562 l 24 562 l 24 602 z"},"s":{"x_min":0,"x_max":386,"ha":386,"o":"m 325 398 l 325 258 l 296 258 q 278 308 255 331 q 221 364 174 364 q 140 364 118 348 q 97 332 97 307 q 97 276 126 262 q 141 254 187 244 l 228 235 q 267 227 284 220 q 301 213 316 200 q 351 171 351 116 q 351 58 314 22 q 277 -12 215 -12 q 152 -12 101 28 l 72 -6 l 42 -6 l 42 152 l 76 152 q 91 89 127 56 q 163 23 216 23 q 252 23 276 42 q 299 61 299 90 q 299 115 280 130 q 260 144 210 156 l 166 166 q 102 181 78 203 q 48 230 48 280 q 48 334 82 368 q 115 401 170 401 q 229 401 272 368 l 296 398 z"},">":{"x_min":0,"x_max":505,"ha":505,"o":"m 40 365 l 40 436 l 464 242 l 464 179 l 40 -14 l 40 57 l 372 211 z"},"l":{"x_min":0,"x_max":262,"ha":262,"o":"m 170 614 l 170 102 l 170 69 q 170 44 181 37 q 192 30 233 30 l 239 30 l 239 0 l 23 0 l 23 30 l 29 30 q 69 30 80 37 q 92 44 92 69 l 92 102 l 92 528 q 92 554 85 562 q 79 569 57 569 l 16 569 l 16 605 z"},"8":{"x_min":0,"x_max":475,"ha":475,"o":"m 321 325 q 363 307 387 288 q 442 242 442 168 q 442 129 426 94 q 410 58 382 35 q 327 -12 228 -12 q 143 -12 92 23 q 64 43 48 75 q 32 107 32 140 q 32 208 85 249 q 109 268 158 287 q 117 308 98 328 q 60 369 60 428 q 60 497 112 542 q 164 587 243 587 q 318 587 368 549 q 417 512 417 454 q 417 375 321 325 z m 229 359 l 280 341 q 313 369 326 392 q 339 416 339 446 q 339 489 312 516 q 285 542 241 542 q 195 542 168 519 q 140 496 140 458 q 140 424 161 401 q 182 378 229 359 z m 274 242 l 202 268 q 157 247 137 218 q 118 188 118 143 q 118 91 148 61 q 178 32 232 32 q 290 32 324 60 q 358 88 358 137 q 358 176 338 200 q 318 225 274 242 z"},"\\":{"x_min":0,"x_max":505,"ha":505,"o":"m 110 614 l 443 0 l 395 0 l 62 614 z"},"e":{"x_min":0,"x_max":417,"ha":417,"o":"m 388 188 l 118 188 q 117 124 138 88 q 171 32 233 32 q 275 32 304 53 q 332 73 358 122 l 388 106 q 337 -12 218 -12 q 133 -12 81 42 q 29 96 29 183 q 29 277 82 339 q 136 401 216 401 q 292 401 340 341 q 388 282 388 188 z m 118 223 l 264 223 q 284 223 291 230 q 298 236 298 254 q 298 304 275 335 q 252 365 214 365 q 156 365 130 291 q 118 258 118 223 z"},"b":{"x_min":0,"x_max":463,"ha":463,"o":"m 150 614 l 150 336 q 173 372 199 386 q 225 401 263 401 q 338 401 386 344 q 433 287 433 197 q 433 107 382 47 q 331 -12 254 -12 q 179 -12 129 53 l 88 -12 l 57 -12 q 72 57 72 203 l 72 528 q 72 554 65 562 q 59 569 36 569 l 7 569 l 7 605 z m 248 358 q 198 358 172 314 q 146 270 146 187 q 146 110 174 67 q 202 23 251 23 q 297 23 321 66 q 346 109 346 188 q 346 270 320 314 q 295 358 248 358 z"},"%":{"x_min":0,"x_max":707,"ha":707,"o":"m 324 499 q 325 488 325 485 q 325 447 309 405 q 292 362 266 331 q 212 268 144 268 q 98 268 68 297 q 38 326 38 371 q 38 412 63 464 q 89 515 126 547 q 177 590 232 590 q 278 590 308 551 q 340 532 368 532 q 452 532 503 602 l 554 602 l 209 0 l 155 0 l 450 517 q 409 492 366 492 q 345 492 324 499 z m 235 545 q 212 537 199 525 q 187 512 166 475 q 139 429 129 403 q 119 378 119 357 q 119 337 131 324 q 142 312 161 312 q 206 312 245 366 q 285 421 285 483 q 285 499 281 514 q 252 524 235 545 z m 575 334 q 618 334 645 306 q 672 278 672 235 q 672 198 655 154 q 638 110 609 74 q 561 12 492 12 q 445 12 414 41 q 383 70 383 113 q 383 189 441 262 q 500 334 575 334 z m 585 288 q 552 288 519 233 q 463 143 463 101 q 463 82 476 70 q 488 58 506 58 q 551 58 591 112 q 632 166 632 228 q 632 252 618 270 q 604 288 585 288 z"},"m":{"x_min":0,"x_max":741,"ha":741,"o":"m 168 388 l 168 324 q 215 401 288 401 q 329 401 360 378 q 392 355 402 318 q 454 401 532 401 q 593 401 631 353 q 648 332 652 313 q 658 294 658 256 l 658 102 l 658 70 q 658 44 669 37 q 680 30 720 30 l 723 30 l 723 0 l 512 0 l 512 30 l 516 30 q 557 30 568 37 q 579 44 579 69 l 579 102 l 579 239 q 579 284 569 308 q 552 350 508 350 q 464 350 438 313 q 412 276 412 213 l 412 102 l 412 69 q 412 44 424 37 q 435 30 475 30 l 478 30 l 478 0 l 268 0 l 268 30 l 271 30 q 312 30 323 37 q 334 44 334 69 l 334 102 l 334 248 q 334 300 318 322 q 310 334 294 342 q 278 350 262 350 q 222 350 195 313 q 168 277 168 221 l 168 102 l 168 70 q 168 44 179 37 q 190 30 230 30 l 233 30 l 233 0 l 23 0 l 23 30 l 27 30 q 67 30 78 37 q 89 44 89 70 l 89 102 l 89 302 q 89 328 83 336 q 77 343 53 343 l 19 343 l 19 379 z"},"#":{"x_min":0,"x_max":475,"ha":475,"o":"m 112 182 l 28 182 l 28 237 l 119 237 l 135 347 l 50 347 l 50 402 l 142 402 l 168 572 l 228 572 l 202 402 l 305 402 l 330 572 l 390 572 l 365 402 l 448 402 l 448 347 l 358 347 l 342 237 l 426 237 l 426 182 l 334 182 l 308 0 l 248 0 l 274 182 l 172 182 l 145 0 l 85 0 z m 195 347 l 179 237 l 282 237 l 298 347 z"},",":{"x_min":0,"x_max":255,"ha":255,"o":"m 82 80 l 129 137 q 138 147 144 147 q 150 147 158 137 l 205 80 q 214 69 205 53 l 120 -93 q 112 -104 100 -100 q 89 -97 93 -81 l 112 -3 q 116 13 108 23 l 82 53 q 72 67 82 80 z"},"n":{"x_min":0,"x_max":509,"ha":509,"o":"m 167 388 l 167 321 q 220 401 298 401 q 335 401 365 384 q 395 367 411 337 q 422 316 425 297 q 428 278 428 233 l 428 102 l 428 69 q 428 44 440 37 q 451 30 491 30 l 494 30 l 494 0 l 283 0 l 283 30 l 287 30 q 328 30 339 37 q 350 44 350 69 l 350 102 l 350 238 q 350 295 332 321 q 322 333 305 342 q 288 350 272 350 q 246 350 220 332 q 195 315 182 287 q 167 255 167 189 l 167 102 l 167 69 q 167 44 178 37 q 189 30 230 30 l 233 30 l 233 0 l 22 0 l 22 30 l 26 30 q 66 30 77 37 q 88 44 88 69 l 88 102 l 88 302 q 88 328 82 336 q 76 343 52 343 l 22 343 l 22 379 z"},"h":{"x_min":0,"x_max":509,"ha":509,"o":"m 167 614 l 167 320 q 221 401 298 401 q 336 401 365 384 q 395 367 411 337 q 422 316 425 297 q 428 278 428 233 l 428 102 l 428 69 q 428 44 440 37 q 451 30 491 30 l 494 30 l 494 0 l 283 0 l 283 30 l 287 30 q 328 30 339 37 q 350 44 350 69 l 350 102 l 350 237 q 350 294 332 321 q 322 333 305 342 q 288 350 272 350 q 246 350 220 332 q 195 315 182 287 q 167 255 167 188 l 167 102 l 167 69 q 167 44 178 37 q 189 30 230 30 l 233 30 l 233 0 l 22 0 l 22 30 l 26 30 q 66 30 77 37 q 88 44 88 69 l 88 102 l 88 528 q 88 554 82 562 q 76 569 52 569 l 12 569 l 12 605 z"},"z":{"x_min":0,"x_max":401,"ha":401,"o":"m 357 388 l 357 358 l 129 36 l 214 36 q 271 36 297 62 q 323 88 329 149 l 362 149 l 357 0 l 32 0 l 32 30 l 260 352 l 188 352 q 137 352 112 328 q 88 304 82 248 l 48 248 l 56 388 z"},"B":{"x_min":0,"x_max":602,"ha":602,"o":"m 25 602 l 324 602 q 400 602 445 582 q 481 566 504 530 q 527 495 527 455 q 527 387 471 346 q 443 325 392 314 q 477 299 518 262 q 558 225 558 163 q 558 87 497 43 q 436 0 328 0 l 25 0 l 25 39 l 40 39 q 91 39 103 45 q 115 52 115 78 l 115 102 l 115 499 l 115 523 q 115 550 103 556 q 91 562 40 562 l 25 562 z m 208 331 l 282 331 q 362 331 396 357 q 430 382 430 444 q 430 517 384 545 q 358 562 297 562 l 263 562 q 231 562 220 554 q 208 545 208 521 z m 208 292 l 208 92 q 208 58 217 48 q 225 39 257 39 l 292 39 q 368 39 405 58 q 456 83 456 166 q 456 248 396 276 q 359 292 282 292 z"},"K":{"x_min":0,"x_max":648,"ha":648,"o":"m 208 272 l 412 478 q 453 518 453 538 q 453 562 399 562 l 378 562 l 378 602 l 635 602 l 635 562 q 557 562 494 496 l 370 372 l 572 81 q 590 54 605 47 q 619 39 653 39 l 669 39 l 669 0 l 384 0 l 384 39 l 410 39 q 467 39 467 58 q 467 68 450 93 l 305 306 l 208 208 l 208 102 l 208 78 q 208 52 220 45 q 232 39 283 39 l 299 39 l 299 0 l 25 0 l 25 39 l 40 39 q 91 39 103 45 q 115 52 115 78 l 115 102 l 115 499 l 115 523 q 115 550 103 556 q 91 562 40 562 l 25 562 l 25 602 l 299 602 l 299 562 l 283 562 q 232 562 220 556 q 208 550 208 523 l 208 499 z"},"R":{"x_min":0,"x_max":602,"ha":602,"o":"m 205 292 l 205 102 l 205 78 q 205 52 217 45 q 229 39 280 39 l 295 39 l 295 0 l 22 0 l 22 39 l 37 39 q 88 39 100 45 q 112 52 112 78 l 112 102 l 112 499 l 112 523 q 112 550 100 556 q 88 562 37 562 l 22 562 l 22 602 l 310 602 q 415 602 472 562 q 530 523 530 452 q 530 328 352 303 q 402 291 428 262 q 455 232 468 175 l 482 122 q 492 79 501 65 q 509 51 523 51 q 540 51 548 70 q 557 90 559 133 l 594 133 q 592 58 568 23 q 542 -12 491 -12 q 442 -12 417 18 q 392 49 384 120 l 380 162 q 372 239 338 267 q 307 292 253 292 z m 205 331 l 297 331 q 362 331 395 359 q 428 385 428 452 q 428 508 398 535 q 369 562 308 562 l 262 562 q 222 562 214 557 q 208 552 206 545 q 205 539 205 514 z"},"T":{"x_min":0,"x_max":556,"ha":556,"o":"m 528 602 l 540 370 l 504 370 q 494 441 477 484 q 461 522 432 542 q 402 562 364 562 q 325 562 325 532 l 325 102 l 325 78 q 325 52 337 45 q 349 39 399 39 l 421 39 l 421 0 l 135 0 l 135 39 l 157 39 q 208 39 220 45 q 232 52 232 78 l 232 102 l 232 532 q 232 562 192 562 q 108 562 74 470 q 60 428 52 370 l 16 370 l 28 602 z"},"P":{"x_min":0,"x_max":556,"ha":556,"o":"m 207 268 l 207 102 l 207 78 q 207 52 219 45 q 231 39 282 39 l 303 39 l 303 0 l 23 0 l 23 39 l 38 39 q 89 39 101 45 q 113 52 113 78 l 113 102 l 113 499 l 113 523 q 113 550 101 556 q 89 562 38 562 l 23 562 l 23 602 l 315 602 q 407 602 457 576 q 541 533 541 437 q 541 388 517 349 q 492 310 448 289 q 402 268 301 268 z m 207 307 l 308 307 q 438 307 438 433 q 438 499 407 531 q 376 562 311 562 l 258 562 q 223 562 215 555 q 207 548 207 520 z"},"|":{"x_min":0,"x_max":505,"ha":505,"o":"m 285 602 l 285 0 l 220 0 l 220 602 z"},"t":{"x_min":0,"x_max":324,"ha":324,"o":"m 162 388 l 284 388 l 284 352 l 162 352 l 162 125 q 162 80 169 62 q 179 38 211 38 q 272 38 276 152 l 311 152 q 312 143 312 132 q 312 58 268 16 q 238 -12 188 -12 q 114 -12 93 42 q 83 65 83 140 l 83 352 l 15 352 l 15 385 q 115 392 128 553 l 162 553 z"},"M":{"x_min":0,"x_max":787,"ha":787,"o":"m 239 602 l 399 158 l 552 602 l 761 602 l 761 562 l 746 562 q 695 562 683 556 q 671 550 671 523 l 671 499 l 671 102 l 671 78 q 671 52 683 45 q 695 39 746 39 l 761 39 l 761 0 l 488 0 l 488 39 l 502 39 q 553 39 565 45 q 578 52 578 78 l 578 102 l 578 548 l 392 0 l 358 0 l 160 548 l 160 180 q 160 95 178 68 q 197 42 256 39 l 256 0 l 18 0 l 18 39 q 78 42 97 68 q 115 95 115 180 l 115 499 l 115 523 q 115 550 103 556 q 91 562 40 562 l 24 562 l 24 602 z"},"g":{"x_min":0,"x_max":448,"ha":448,"o":"m 163 62 l 248 62 q 324 62 354 50 q 378 41 391 17 q 404 -7 404 -38 q 404 -169 195 -169 q 111 -169 65 -147 q 19 -124 19 -83 q 19 -32 96 -4 q 40 15 40 68 q 40 102 59 122 q 78 142 119 151 q 87 166 68 196 q 49 226 49 262 q 49 325 94 363 q 139 401 213 401 q 269 401 317 369 q 346 396 361 404 q 377 412 397 412 q 421 412 436 399 q 452 386 452 364 q 452 348 441 336 q 430 324 414 324 q 382 324 377 355 q 374 367 368 367 q 359 367 340 347 q 371 310 371 265 q 371 179 292 144 q 272 135 252 132 q 232 129 173 128 q 132 128 113 119 q 95 110 95 91 q 95 75 105 69 q 117 62 163 62 z m 212 365 q 171 365 148 338 q 125 311 125 262 q 125 215 148 188 q 170 160 209 160 q 249 160 272 188 q 294 215 294 264 q 294 312 273 339 q 252 365 212 365 z m 205 -10 l 143 -10 q 113 -26 101 -41 q 88 -56 88 -77 q 88 -105 117 -120 q 146 -135 198 -135 q 268 -135 307 -115 q 346 -96 346 -60 q 346 -40 331 -27 q 317 -14 292 -12 q 279 -10 205 -10 z"},"j":{"x_min":0,"x_max":247,"ha":247,"o":"m 172 388 l 172 59 q 172 -12 165 -49 q 158 -87 138 -114 q 99 -168 25 -168 q -17 -168 -42 -150 q -68 -131 -68 -100 q -68 -78 -55 -64 q -42 -50 -22 -50 q -4 -50 9 -62 q 22 -73 22 -89 q 22 -97 16 -109 q 12 -120 12 -122 q 12 -133 32 -133 q 46 -133 59 -125 q 72 -117 78 -104 q 94 -72 94 19 l 94 302 q 94 328 88 336 q 82 343 58 343 l 10 343 l 10 379 z m 132 499 q 113 499 99 514 q 85 528 85 548 q 85 568 99 582 q 113 596 133 596 q 153 596 168 582 q 182 568 182 548 q 182 528 168 513 q 153 499 132 499 z"},"i":{"x_min":0,"x_max":262,"ha":262,"o":"m 172 388 l 172 102 l 172 69 q 172 44 183 37 q 194 30 235 30 l 241 30 l 241 0 l 25 0 l 25 30 l 31 30 q 71 30 82 37 q 93 44 93 69 l 93 102 l 93 302 q 93 328 87 336 q 81 343 58 343 l 15 343 l 15 379 z m 132 499 q 112 499 98 514 q 84 528 84 548 q 84 568 98 582 q 112 596 132 596 q 152 596 167 582 q 181 568 181 548 q 181 528 167 513 q 152 499 132 499 z"},"y":{"x_min":0,"x_max":448,"ha":448,"o":"m 250 106 l 326 294 q 334 314 334 328 q 334 358 289 358 l 276 358 l 276 388 l 442 388 l 442 358 l 438 358 q 413 358 398 344 q 383 329 368 291 l 272 56 q 227 -60 193 -105 q 144 -172 78 -172 q 46 -172 24 -153 q 2 -135 2 -108 q 2 -85 17 -70 q 31 -56 52 -56 q 71 -56 83 -67 q 95 -78 95 -93 q 95 -102 91 -115 q 89 -122 89 -122 q 89 -131 102 -131 q 122 -131 149 -101 q 176 -71 198 -23 l 212 6 l 77 313 q 66 338 53 348 q 40 358 20 358 l 11 358 l 11 388 l 209 388 l 209 358 l 192 358 q 153 358 153 338 q 153 332 158 320 z"},"@":{"x_min":0,"x_max":614,"ha":614,"o":"m 531 157 l 582 157 q 559 104 505 55 q 429 -12 326 -12 q 202 -12 119 77 q 36 166 36 297 q 36 437 122 527 q 161 568 215 590 q 268 613 324 613 q 433 613 510 540 q 588 466 588 362 q 588 306 563 253 q 539 200 497 165 q 447 122 398 122 q 372 122 356 138 q 340 152 340 177 q 340 187 341 193 q 317 158 296 142 q 276 128 251 128 q 206 128 174 165 q 147 198 147 252 q 147 332 200 392 q 224 419 255 436 q 287 452 314 452 q 363 452 379 398 l 392 445 l 466 445 l 405 204 q 402 191 402 179 q 402 171 408 165 q 414 159 423 159 q 440 159 461 175 q 482 191 500 217 q 544 280 544 357 q 544 399 526 441 q 508 482 475 513 q 415 571 328 571 q 222 571 152 495 q 82 418 82 301 q 82 182 153 107 q 223 31 332 31 q 460 31 531 157 z m 326 418 q 295 418 273 383 q 250 348 236 304 q 222 261 222 226 q 222 195 232 178 q 242 161 262 161 q 302 161 333 233 q 363 301 363 358 q 363 386 353 402 q 343 418 326 418 z"},".":{"x_min":0,"x_max":254,"ha":254,"o":"m 82 80 l 129 137 q 138 147 144 147 q 150 147 158 137 l 205 80 q 216 67 205 53 l 158 -3 q 150 -14 144 -14 q 138 -14 129 -3 l 82 53 q 72 67 82 80 z"},"p":{"x_min":0,"x_max":478,"ha":478,"o":"m 168 388 l 168 329 q 209 401 282 401 q 351 401 398 342 q 446 282 446 196 q 446 107 398 47 q 350 -12 278 -12 q 239 -12 214 3 q 188 19 168 55 l 168 -66 l 168 -99 q 168 -124 179 -131 q 190 -138 231 -138 l 240 -138 l 240 -168 l 23 -168 l 23 -138 l 27 -138 q 67 -138 78 -131 q 89 -124 89 -99 l 89 -66 l 89 302 q 89 328 83 336 q 77 343 53 343 l 23 343 l 23 379 z m 268 356 q 220 356 193 312 q 167 268 167 190 q 167 118 194 75 q 221 32 265 32 q 309 32 334 76 q 358 120 358 201 q 358 274 335 315 q 311 356 268 356 z"},"X":{"x_min":0,"x_max":587,"ha":587,"o":"m 324 333 l 499 82 q 520 52 533 45 q 547 39 587 39 l 597 39 l 597 0 l 323 0 l 323 39 l 347 39 q 386 40 394 42 q 402 44 402 54 q 402 63 392 80 l 268 256 l 171 116 q 158 96 158 79 q 158 61 172 50 q 187 39 212 39 l 232 39 l 232 0 l -4 0 l -4 39 l -1 39 q 62 39 108 106 l 243 293 l 79 531 q 65 552 52 557 q 40 562 9 562 l -5 562 l -5 602 l 252 602 l 252 562 l 221 562 q 181 562 181 552 q 181 544 190 531 l 301 371 l 391 502 q 402 518 402 530 q 402 562 345 562 l 333 562 l 333 602 l 562 602 l 562 562 l 549 562 q 516 562 493 547 q 470 531 435 484 z"},"*":{"x_min":0,"x_max":431,"ha":431,"o":"m 202 409 l 177 394 q 174 392 168 389 q 161 386 159 385 q 158 383 152 380 q 148 377 145 374 q 142 372 138 367 q 133 362 129 357 q 124 351 118 343 q 108 330 100 325 q 88 318 73 322 q 58 325 52 336 q 45 348 49 363 q 53 378 66 385 q 74 390 110 395 q 128 397 163 417 l 189 432 l 163 447 q 148 455 142 458 q 136 462 122 465 q 108 469 90 471 q 62 474 52 492 q 44 503 48 517 q 51 531 62 538 q 92 555 118 520 q 129 506 140 496 q 150 486 156 482 q 162 478 177 469 l 202 455 l 202 484 q 202 487 202 495 q 202 503 202 505 q 202 507 201 513 q 201 520 200 523 q 199 527 198 533 q 196 539 193 546 q 191 552 188 560 q 170 600 200 618 q 212 624 225 620 q 238 616 246 603 q 256 586 244 560 q 237 543 233 530 q 230 516 230 509 q 229 502 228 484 l 228 454 l 255 469 q 256 470 262 473 q 268 477 269 478 q 270 478 274 481 q 278 483 280 485 q 282 486 285 489 q 289 492 292 495 q 294 498 298 501 q 302 505 305 510 q 308 515 313 520 q 323 534 332 539 q 343 546 359 542 q 374 538 381 526 q 388 515 383 500 q 378 485 367 478 q 358 473 342 471 q 332 470 325 469 q 318 468 311 467 q 305 465 301 464 q 298 463 292 460 q 287 458 285 457 q 283 456 277 452 q 270 448 268 447 l 242 432 l 268 417 q 269 416 272 414 q 285 408 292 404 q 299 401 312 398 q 324 394 342 392 q 369 389 379 372 q 387 360 384 346 q 381 332 368 326 q 338 308 312 343 q 302 358 291 368 q 281 378 276 381 q 271 384 254 394 l 229 409 l 229 379 q 228 362 229 355 q 230 348 233 334 q 237 321 244 303 q 262 264 231 246 q 219 239 206 243 q 192 248 185 260 q 175 278 187 303 q 198 328 200 342 q 202 357 202 379 z"},"Y":{"x_min":0,"x_max":587,"ha":587,"o":"m 324 298 l 428 482 q 442 508 442 525 q 442 545 426 554 q 411 562 377 562 l 358 562 l 358 602 l 594 602 l 594 562 l 588 562 q 545 562 514 534 q 498 518 472 473 l 348 249 l 348 102 l 348 78 q 348 52 360 45 q 372 39 422 39 l 444 39 l 444 0 l 158 0 l 158 39 l 180 39 q 231 39 243 45 q 255 52 255 78 l 255 102 l 255 239 l 75 524 q 61 548 48 555 q 34 562 8 562 l -11 562 l -11 602 l 257 602 l 257 562 l 208 562 q 175 562 175 547 q 175 537 184 523 z"},"c":{"x_min":0,"x_max":370,"ha":370,"o":"m 322 122 l 355 110 q 328 43 293 15 q 258 -12 202 -12 q 125 -12 77 43 q 28 98 28 188 q 28 281 81 341 q 133 401 214 401 q 270 401 307 372 q 344 343 344 302 q 344 277 330 261 q 315 245 293 245 q 272 245 258 258 q 243 271 243 292 q 243 310 260 330 q 265 338 265 340 q 265 350 251 358 q 237 365 218 365 q 172 365 144 319 q 116 272 116 197 q 116 123 145 81 q 174 38 224 38 q 257 38 280 58 q 302 78 322 122 z"},"!":{"x_min":0,"x_max":254,"ha":254,"o":"m 148 217 q 147 208 140 199 q 132 187 127 187 q 122 187 114 199 q 108 208 106 217 l 72 457 q 68 489 68 508 q 68 587 128 587 q 186 587 186 508 q 186 492 181 458 z m 72 80 l 115 139 q 122 149 128 149 q 133 149 141 139 l 183 80 q 193 67 183 53 l 141 -6 q 133 -17 128 -17 q 123 -17 115 -6 l 72 53 q 63 67 72 80 z"},"/":{"x_min":0,"x_max":244,"ha":244,"o":"m 203 613 l 264 613 l 42 -12 l -19 -12 z"},"[":{"x_min":0,"x_max":278,"ha":278,"o":"m 130 -60 l 248 -60 l 248 -90 l 55 -90 l 55 602 l 248 602 l 248 571 l 130 571 z"},"6":{"x_min":0,"x_max":475,"ha":475,"o":"m 138 288 q 192 358 271 358 q 342 358 393 309 q 444 259 444 187 q 444 148 428 109 q 412 70 384 42 q 329 -12 244 -12 q 148 -12 90 61 q 32 135 32 257 q 32 324 52 387 q 71 450 107 498 q 138 540 185 563 q 232 587 286 587 q 348 587 388 558 q 428 530 428 487 q 428 460 412 443 q 395 427 366 427 q 338 427 322 440 q 307 454 307 476 q 307 492 317 511 q 321 518 321 522 q 321 542 279 542 q 248 542 217 518 q 186 495 168 453 q 155 422 149 390 q 143 357 138 288 z m 248 299 q 202 299 175 264 q 148 229 148 169 q 148 125 166 89 q 194 32 246 32 q 288 32 312 72 q 337 112 337 180 q 337 236 313 268 q 289 299 248 299 z"},"r":{"x_min":0,"x_max":370,"ha":370,"o":"m 165 388 l 165 285 q 185 340 218 370 q 251 401 290 401 q 323 401 343 382 q 362 364 362 334 q 362 308 348 293 q 334 278 312 278 q 292 278 279 290 q 266 303 266 323 q 266 343 281 361 q 228 354 198 284 q 165 210 165 111 l 165 102 l 165 69 q 165 44 176 37 q 188 30 228 30 l 243 30 l 243 0 l 21 0 l 21 30 l 24 30 q 65 30 76 37 q 88 44 88 69 l 88 102 l 88 302 q 88 328 81 336 q 75 343 52 343 l 18 343 l 18 379 z"},"2":{"x_min":0,"x_max":475,"ha":475,"o":"m 435 180 l 419 0 l 35 0 l 35 23 q 82 86 117 126 l 182 196 l 231 248 q 321 342 321 438 q 321 487 291 514 q 261 542 210 542 q 189 542 167 531 q 144 521 130 505 q 112 486 112 465 q 112 463 113 462 q 113 460 114 459 q 115 458 116 456 q 118 455 120 454 q 122 452 123 451 q 125 450 128 449 q 132 448 134 446 q 137 445 141 443 q 146 442 149 440 q 179 427 179 392 q 179 370 163 356 q 147 342 121 342 q 86 342 67 365 q 48 389 48 430 q 48 497 102 542 q 157 587 236 587 q 327 587 379 542 q 432 497 432 424 q 432 365 392 310 q 362 271 267 198 q 212 154 153 95 l 317 95 q 358 95 369 104 q 381 113 387 145 l 394 180 z"},"{":{"x_min":0,"x_max":278,"ha":278,"o":"m 55 242 l 55 269 q 82 278 93 286 q 104 293 110 307 q 118 323 118 380 l 118 477 q 118 553 148 579 q 172 602 226 602 l 248 602 l 248 573 q 207 571 193 550 q 180 528 180 468 l 180 360 q 180 318 169 297 q 158 277 124 256 q 158 235 169 215 q 180 194 180 152 l 180 43 q 180 -17 193 -38 q 207 -59 248 -62 l 248 -90 l 226 -90 q 172 -90 148 -68 q 118 -42 118 35 l 118 132 q 118 172 116 186 q 114 200 107 212 q 94 229 55 242 z"},"9":{"x_min":0,"x_max":475,"ha":475,"o":"m 334 280 q 304 242 274 228 q 244 213 202 213 q 128 213 79 262 q 30 312 30 386 q 30 470 88 528 q 146 587 229 587 q 326 587 384 512 q 442 438 442 312 q 442 179 376 83 q 344 38 295 12 q 246 -12 187 -12 q 127 -12 86 15 q 46 43 46 84 q 46 110 63 127 q 80 144 110 144 q 137 144 152 130 q 168 117 168 95 q 168 82 156 58 q 152 51 152 48 q 152 32 198 32 q 232 32 264 58 q 295 84 310 129 q 324 172 334 280 z m 232 542 q 208 542 190 532 q 173 522 161 499 q 138 462 138 401 q 138 339 161 305 q 185 272 228 272 q 253 272 275 284 q 296 296 309 318 q 327 345 327 397 q 327 462 301 502 q 275 542 232 542 z"}," ":{"x_min":0,"x_max":308,"ha":308,"o":""},"I":{"x_min":0,"x_max":339,"ha":339,"o":"m 217 499 l 217 102 l 217 78 q 217 52 229 45 q 241 39 291 39 l 308 39 l 308 0 l 32 0 l 32 39 l 48 39 q 99 39 111 45 q 123 52 123 78 l 123 102 l 123 499 l 123 523 q 123 550 111 556 q 99 562 48 562 l 32 562 l 32 602 l 308 602 l 308 562 l 291 562 q 241 562 229 556 q 217 550 217 523 z"},"H":{"x_min":0,"x_max":694,"ha":694,"o":"m 487 289 l 208 289 l 208 102 l 208 78 q 208 52 220 45 q 232 39 282 39 l 298 39 l 298 0 l 24 0 l 24 39 l 39 39 q 90 39 102 45 q 114 52 114 78 l 114 102 l 114 499 l 114 523 q 114 550 102 556 q 90 562 39 562 l 24 562 l 24 602 l 298 602 l 298 562 l 282 562 q 232 562 220 556 q 208 550 208 523 l 208 499 l 208 334 l 487 334 l 487 499 l 487 523 q 487 550 475 556 q 462 562 412 562 l 400 562 l 400 602 l 670 602 l 670 562 l 655 562 q 604 562 592 556 q 580 550 580 523 l 580 499 l 580 102 l 580 78 q 580 52 592 45 q 604 39 655 39 l 670 39 l 670 0 l 397 0 l 397 39 l 412 39 q 462 39 475 45 q 487 52 487 78 l 487 102 z"},"4":{"x_min":0,"x_max":475,"ha":475,"o":"m 312 587 l 361 587 q 357 524 357 420 l 357 192 l 445 192 l 445 146 l 357 146 l 357 102 l 357 82 q 357 56 366 50 q 376 43 419 43 l 422 43 l 422 0 l 179 0 l 179 43 l 188 43 q 230 43 240 50 q 251 57 251 82 l 251 102 l 251 146 l 29 146 l 29 192 z m 251 192 l 251 413 l 89 192 z"},"~":{"x_min":0,"x_max":505,"ha":505,"o":"m 87 152 l 42 183 q 66 224 98 248 q 129 272 159 272 q 186 272 242 246 l 280 228 q 328 204 347 204 q 382 204 418 258 l 462 227 q 439 186 408 162 q 376 138 346 138 q 319 138 263 163 l 225 182 q 188 200 180 203 q 171 206 158 206 q 122 206 87 152 z"},"D":{"x_min":0,"x_max":648,"ha":648,"o":"m 114 102 l 114 499 l 114 523 q 114 550 102 556 q 90 562 40 562 l 24 562 l 24 602 l 289 602 q 425 602 492 559 q 549 522 580 456 q 610 390 610 304 q 610 211 576 142 q 542 72 479 37 q 414 0 304 0 l 24 0 l 24 39 l 40 39 q 90 39 102 45 q 114 52 114 78 z m 255 39 l 312 39 q 412 39 456 100 q 500 161 500 301 q 500 439 452 501 q 405 562 298 562 l 255 562 q 224 562 216 555 q 208 547 208 516 l 208 85 q 208 54 215 47 q 223 39 255 39 z"},"^":{"x_min":0,"x_max":505,"ha":505,"o":"m 462 265 l 389 265 l 253 524 l 116 265 l 43 265 l 218 602 l 288 602 z"},"0":{"x_min":0,"x_max":475,"ha":475,"o":"m 242 587 q 332 587 388 501 q 442 415 442 282 q 442 152 385 70 q 327 -12 236 -12 q 148 -12 90 72 q 32 157 32 285 q 32 416 92 501 q 152 587 242 587 z m 237 542 q 215 542 195 525 q 176 508 162 478 q 142 431 142 302 q 142 203 148 157 q 153 110 169 82 q 198 32 238 32 q 259 32 279 49 q 298 66 312 96 q 323 122 328 167 q 332 212 332 298 q 332 380 327 422 q 321 464 305 492 q 277 542 237 542 z"},"F":{"x_min":0,"x_max":556,"ha":556,"o":"m 520 602 l 532 388 l 495 388 q 478 495 440 529 q 402 562 298 562 l 260 562 q 226 562 217 555 q 208 548 208 521 l 208 331 l 228 331 q 287 331 314 358 q 341 384 344 445 l 383 445 l 383 172 l 344 172 q 342 239 313 269 q 300 282 282 287 q 263 292 224 292 l 208 292 l 208 102 l 208 78 q 208 52 220 45 q 232 39 282 39 l 310 39 l 310 0 l 24 0 l 24 39 l 39 39 q 90 39 102 45 q 114 52 114 78 l 114 102 l 114 499 l 114 523 q 114 550 102 556 q 90 562 39 562 l 24 562 l 24 602 z"},"`":{"x_min":0,"x_max":278,"ha":278,"o":"m 202 446 l 168 446 l 35 527 q 14 541 14 559 q 14 572 22 580 q 31 588 43 588 q 59 588 85 562 z"},"k":{"x_min":0,"x_max":494,"ha":494,"o":"m 166 202 l 278 310 q 298 329 298 342 q 298 358 258 358 l 232 358 l 232 388 l 452 388 l 452 358 q 409 353 378 338 q 347 322 311 286 l 273 249 l 392 88 q 418 55 436 44 q 454 33 489 30 l 489 0 l 269 0 l 269 30 l 285 30 q 322 30 322 44 q 322 49 316 59 l 217 198 l 166 150 l 166 102 l 166 69 q 166 44 177 37 q 188 30 229 30 l 232 30 l 232 0 l 22 0 l 22 30 l 25 30 q 65 30 76 37 q 88 44 88 69 l 88 102 l 88 528 q 88 554 81 562 q 75 569 52 569 l 12 569 l 12 605 l 166 614 z"},"u":{"x_min":0,"x_max":509,"ha":509,"o":"m 343 -6 l 343 63 q 316 23 285 5 q 254 -12 213 -12 q 136 -12 101 41 q 85 65 85 122 l 85 302 q 85 328 79 336 q 72 343 49 343 l 18 343 l 18 379 l 163 388 l 163 134 q 163 100 165 88 q 168 76 176 64 q 192 38 234 38 q 298 38 326 97 q 343 135 343 199 l 343 302 q 343 328 337 336 q 331 343 308 343 l 265 343 l 265 379 l 422 388 l 422 97 q 422 57 431 46 q 440 36 474 36 l 495 36 l 495 0 z"},"]":{"x_min":0,"x_max":278,"ha":278,"o":"m 147 572 l 30 572 l 30 602 l 222 602 l 222 -90 l 30 -90 l 30 -59 l 147 -59 z"},"U":{"x_min":0,"x_max":679,"ha":679,"o":"m 569 421 l 569 232 q 569 128 532 75 q 473 -12 333 -12 q 188 -12 128 73 q 106 105 102 168 l 102 225 l 102 499 l 102 523 q 102 550 90 556 q 78 562 28 562 l 14 562 l 14 602 l 287 602 l 287 562 l 271 562 q 220 562 208 556 q 196 550 196 523 l 196 499 l 196 220 q 196 162 201 138 q 206 115 222 92 q 266 32 356 32 q 407 32 445 54 q 484 75 504 114 q 516 136 520 161 q 524 187 524 237 l 524 421 q 524 507 506 533 q 488 560 428 562 l 428 602 l 666 602 l 666 562 q 606 560 588 533 q 569 507 569 421 z"},"o":{"x_min":0,"x_max":417,"ha":417,"o":"m 210 401 q 284 401 336 340 q 388 280 388 194 q 388 108 336 48 q 283 -12 208 -12 q 133 -12 81 48 q 28 108 28 193 q 28 281 81 341 q 133 401 210 401 z m 210 365 q 116 365 116 193 q 116 111 140 67 q 163 23 208 23 q 253 23 277 67 q 301 111 301 194 q 301 277 278 321 q 254 365 210 365 z"},"N":{"x_min":0,"x_max":679,"ha":679,"o":"m 188 602 l 520 159 l 520 421 q 520 507 502 533 q 483 560 424 562 l 424 602 l 662 602 l 662 562 q 602 560 583 533 q 565 507 565 421 l 565 -12 l 530 -12 l 158 490 l 158 181 q 158 95 177 68 q 195 42 254 39 l 254 0 l 17 0 l 17 39 q 77 42 95 68 q 113 95 113 181 l 113 535 q 102 551 85 557 q 68 562 37 562 l 16 562 l 16 602 z"},"+":{"x_min":0,"x_max":505,"ha":505,"o":"m 219 244 l 219 421 l 286 421 l 286 244 l 462 244 l 462 178 l 286 178 l 286 0 l 219 0 l 219 178 l 42 178 l 42 244 z"},"G":{"x_min":0,"x_max":648,"ha":648,"o":"m 542 608 l 553 373 l 518 373 q 466 575 322 575 q 236 575 190 502 q 145 429 145 290 q 145 162 189 96 q 210 65 248 46 q 285 27 325 27 q 366 27 402 46 q 438 65 453 96 q 470 129 470 185 q 470 219 458 227 q 447 235 394 235 l 378 235 l 378 274 l 643 274 l 643 235 l 631 235 q 572 235 561 223 q 556 218 556 172 l 556 -12 l 521 -12 l 490 63 q 449 22 409 5 q 369 -12 317 -12 q 257 -12 202 12 q 148 36 108 80 q 35 162 35 290 q 35 456 156 553 q 231 614 326 614 q 372 614 404 602 q 437 589 478 557 l 510 608 z"},"q":{"x_min":0,"x_max":463,"ha":463,"o":"m 374 388 l 405 388 q 393 333 392 318 q 392 305 391 258 l 391 -66 l 391 -99 q 391 -124 402 -131 q 413 -138 453 -138 l 457 -138 l 457 -168 l 240 -168 l 240 -138 l 249 -138 q 290 -138 301 -131 q 312 -124 312 -99 l 312 -66 l 312 48 q 288 14 263 1 q 238 -12 199 -12 q 126 -12 78 43 q 30 99 30 185 q 30 278 81 339 q 132 401 208 401 q 286 401 335 332 z m 216 365 q 118 365 118 190 q 118 115 143 74 q 168 32 215 32 q 312 32 312 203 q 312 270 295 308 q 283 335 262 350 q 241 365 216 365 z"},"d":{"x_min":0,"x_max":478,"ha":478,"o":"m 317 -6 l 317 60 q 278 -12 202 -12 q 129 -12 82 45 q 36 102 36 190 q 36 280 83 340 q 131 401 202 401 q 272 401 317 339 l 317 528 q 317 554 310 562 q 303 569 281 569 l 232 569 l 232 605 l 395 614 l 395 97 q 395 58 404 47 q 413 36 447 36 l 462 36 l 462 0 z m 139 295 q 123 253 123 180 q 123 111 148 72 q 173 32 218 32 q 262 32 289 76 q 316 120 316 192 q 316 253 300 292 q 289 321 267 338 q 244 356 218 356 q 192 356 171 339 q 150 322 139 295 z"},"1":{"x_min":0,"x_max":475,"ha":475,"o":"m 274 587 l 317 587 q 311 504 311 447 l 311 107 q 311 72 312 66 q 312 59 317 55 q 326 43 386 43 l 419 43 l 419 0 l 89 0 l 89 43 l 131 43 q 181 43 193 50 q 205 56 205 82 l 205 107 l 205 432 q 205 469 198 477 q 190 485 153 485 l 92 485 l 92 525 q 150 527 202 544 q 253 561 274 587 z"},"5":{"x_min":0,"x_max":475,"ha":475,"o":"m 141 476 l 128 351 q 165 366 187 371 q 209 376 236 376 q 324 376 378 324 q 432 272 432 187 q 432 95 372 41 q 312 -12 210 -12 q 143 -12 99 15 q 70 34 52 64 q 35 93 35 124 q 35 154 54 174 q 72 194 103 194 q 132 194 148 180 q 164 165 164 142 q 164 126 157 115 q 150 105 131 93 q 116 85 116 75 q 116 57 147 44 q 178 32 209 32 q 258 32 288 61 q 325 98 325 182 q 325 251 295 288 q 264 326 214 326 q 190 326 173 320 q 157 315 133 302 q 126 298 117 281 q 108 265 97 264 q 84 263 77 269 q 69 275 68 287 q 68 293 71 306 q 74 318 75 324 q 92 481 98 587 q 202 562 278 562 q 338 562 388 583 q 394 587 399 587 q 406 587 406 579 q 406 564 393 541 q 376 508 335 485 q 294 462 243 462 q 200 462 141 476 z"}}}
